<?xml version="1.0" encoding="UTF-8"?> <svg xmlns="http://www.w3.org/2000/svg" xmlns:xlink="http://www.w3.org/1999/xlink" id="a" viewBox="0 0 1024 768"><defs><style>.f{stroke:#02024e;}.f,.g,.h,.i,.j{fill:none;}.f,.h{stroke-width:1.5px;}.f,.h,.i{stroke-linecap:round;}.f,.h,.j{stroke-miterlimit:10;}.h{stroke:#1ab8e8;}.i{stroke:#020252;stroke-linejoin:round;stroke-width:.75px;}.k{fill:#020252;}.l{fill:#02024e;}.m{fill:#e7f5f7;}.n{fill:#fff;}.o{fill:#f1f1f6;}.p{fill:#c37ef9;}.q{fill:#b45ef9;}.r{fill:#dbdaeb;}.s{fill:#21e6ad;}.t{fill:#199fd5;}.u{fill:#1ab8e8;}.j{stroke:#21e6ad;stroke-width:2px;}.v{clip-path:url(#b);}.w{fill:url(#e);}.w,.x,.y{opacity:.5;}.x{fill:url(#d);}.y{fill:url(#c);}</style><clipPath id="b"><path class="g" d="M302.42,207.29s2.78,48.63,4.17,56.27c1.39,7.64,8.32,87.67,7.86,97.79s-49.61,55.19-69.84,95.2c-20.24,40.01-6.15,85.08-3.11,134.75,3.04,49.67,14.85,68.7,26.96,80.94,7.32,7.4,57.95,50.13,117.73,57.95,59.79,7.82,119.57,19.32,202.82,0,83.24-19.32,127.39-68.07,140.27-93.36,11.11-21.82,42.05-68.94,41.21-140.8-.13-11.46,21.46-45.62,19.5-58.34-2.47-16.02-28.19-8.31-31.75-21.13-8.92-32.1-20.25-54.46-29.01-68.45-6.37-10.17-14.55-19.07-24.03-26.43-18.69-14.51-56.98-44.61-64.23-53.23-9.66-11.5-68.07-60.71-82.32-85.54-14.26-24.83-63.47-103.31-122.79-111.67-59.33-8.36-138.11,23.85-133.44,136.06Z"></path></clipPath><linearGradient id="c" x1="319.9" y1="574.97" x2="362.3" y2="574.97" gradientTransform="matrix(1, 0, 0, 1, 0, 0)" gradientUnits="userSpaceOnUse"><stop offset="0" stop-color="#b45ef9"></stop><stop offset=".52" stop-color="#1ab8e8"></stop><stop offset="1" stop-color="#21e6ad"></stop></linearGradient><linearGradient id="d" x1="484.49" y1="633.93" x2="542.83" y2="633.93" gradientTransform="matrix(1, 0, 0, 1, 0, 0)" gradientUnits="userSpaceOnUse"><stop offset=".01" stop-color="#b45ef9"></stop><stop offset=".52" stop-color="#1ab8e8"></stop><stop offset="1" stop-color="#21e6ad"></stop></linearGradient><linearGradient id="e" x1="684.02" y1="522.01" x2="732.13" y2="522.01" gradientTransform="matrix(1, 0, 0, 1, 0, 0)" gradientUnits="userSpaceOnUse"><stop offset="0" stop-color="#b45ef9"></stop><stop offset=".52" stop-color="#1ab8e8"></stop><stop offset="1" stop-color="#21e6ad"></stop></linearGradient></defs><g><path class="n" d="M302.42,207.29s2.78,48.63,4.17,56.27c1.39,7.64,8.32,87.67,7.86,97.79s-2.3,49.21-22.54,89.22-53.46,91.06-50.41,140.73c3.04,49.67,15.06,69.22,26.96,80.94,7.41,7.3,57.95,50.13,117.73,57.95,59.79,7.82,119.57,19.32,202.82,0,83.24-19.32,127.39-68.07,140.27-93.36,12.88-25.29,52.43-84.62,38.17-177.06-8.66-56.12-25.96-92.07-38.22-111.66-6.37-10.17-14.55-19.07-24.03-26.43-18.69-14.51-56.98-44.61-64.23-53.23-9.66-11.5-68.07-60.71-82.32-85.54-14.26-24.83-63.47-103.31-122.79-111.67-59.33-8.36-138.11,23.85-133.44,136.06Z"></path><path class="n" d="M647.15,137.01s-25.85,.32-42.87,24.27c-17.02,23.96,13.87,65.25,26.79,74.08,12.92,8.83,23.01,14.82,33.1,12.92,10.09-1.89,18.28-16.39,21.12-26.16,2.84-9.77,17.02-82.9-38.14-85.11Z"></path><g><g><circle class="r" cx="399.68" cy="254.97" r="18.66"></circle><circle class="r" cx="446.16" cy="254.97" r="18.66"></circle><path class="r" d="M409.73,314.39c4.2-5.43,6.7-12.25,6.7-19.65,0-17.76-14.4-32.17-32.17-32.17s-32.17,14.4-32.17,32.17c0,7.4,2.5,14.21,6.7,19.65h50.93Z"></path><path class="r" d="M433.18,314.39c-4.2-5.43-6.7-12.25-6.7-19.65,0-17.76,14.4-32.17,32.17-32.17s32.17,14.4,32.17,32.17c0,7.4-2.5,14.21-6.7,19.65h-50.93Z"></path><polygon class="r" points="423.04 112.05 395.75 314.39 450.33 314.39 423.04 112.05"></polygon></g><g><path class="u" d="M422.92,188.61c19.41,0,36.12,11.48,43.75,28.02,.43,.93,1.78,.87,2.09-.1,1.78-5.52,2.6-11.46,2.24-17.65-1.44-24.54-21.54-44.27-46.1-45.25-27.5-1.1-50.14,20.87-50.14,48.12,0,5.16,.82,10.13,2.33,14.78,.31,.97,1.66,1.03,2.09,.1,7.62-16.54,24.34-28.03,43.75-28.03Z"></path><path class="t" d="M422.92,182.19c-19.76,0-37.22,9.75-47.88,24.7,.36,3.33,1.05,6.56,2.04,9.65,.31,.97,1.66,1.03,2.09,.1,7.62-16.54,24.34-28.03,43.75-28.03s36.12,11.48,43.75,28.02c.43,.93,1.78,.87,2.09-.1,1-3.09,1.68-6.32,2.04-9.65-10.66-14.94-28.12-24.7-47.88-24.7Z"></path><path class="q" d="M441.5,202.96c1.02,0,1.93-.67,2.22-1.65,6.02-20.33,9.25-41.85,9.25-64.13,0-39.39-10.1-76.42-27.84-108.65-.96-1.75-3.48-1.75-4.44,0-17.74,32.23-27.84,69.26-27.84,108.65,0,22.28,3.23,43.81,9.25,64.13,.29,.98,1.2,1.65,2.22,1.65h37.17Z"></path><path class="u" d="M407.33,202.96h31.18v5c0,2.09-1.7,3.79-3.79,3.79h-23.61c-2.09,0-3.79-1.7-3.79-3.79v-5h0Z"></path><rect class="t" x="407.33" y="202.96" width="31.18" height="2.54"></rect><path class="p" d="M422.81,202.96s19.24,0,19.6-.13c.65-.26,1.21-.8,1.42-1.52,6.02-20.33,9.25-41.85,9.25-64.13,0-6.75-.3-13.44-.88-20.04,0,0-.72,66.37-29.39,85.83Z"></path><line class="f" x1="444.16" y1="197.03" x2="401.69" y2="197.03"></line><line class="f" x1="422.92" y1="27.53" x2="422.92" y2="202.65"></line><circle class="u" cx="422.92" cy="97.09" r="14.06"></circle><path class="t" d="M432.08,86.43c1.31,2.14,2.07,4.65,2.07,7.34,0,7.77-6.3,14.06-14.06,14.06-3.5,0-6.7-1.28-9.16-3.4,2.47,4.03,6.92,6.72,12,6.72,7.77,0,14.06-6.3,14.06-14.06,0-4.27-1.9-8.08-4.9-10.66Z"></path></g></g><g class="v"><g><polygon class="r" points="656.22 487.52 661.57 302.85 643.87 305.66 648.36 487.52 656.22 487.52"></polygon><polygon class="k" points="656.19 309.56 650.96 309.56 650.96 301.71 656.19 309.56"></polygon><path class="o" d="M354.05,293.79h297.16v193.73H342.83v-184.64c0-5.02,5.02-9.09,11.21-9.09h.01Z"></path><polygon class="m" points="656.55 293.8 646.64 293.8 650.76 301.71 656.55 293.8"></polygon><ellipse class="q" cx="656.41" cy="301.65" rx="5.23" ry="7.91"></ellipse><path class="i" d="M652.45,302.52c.54-4.36,2.76-7.44,4.96-7.02,1.77,.38,2.85,3.51,2.42,6.99-.35,2.78-1.77,4.79-3.18,4.48-1.13-.24-1.83-2.24-1.55-4.46,.21-1.79,1.13-3.07,2.03-2.88,.73,.16,1.17,1.44,.99,2.86-.14,1.14-.72,1.97-1.3,1.84s-.74-.93-.64-1.84c.09-.73,.46-1.26,.83-1.17s.48,.59,.41,1.17"></path><rect class="q" x="340.25" y="487.52" width="316.28" height="6.09"></rect><g><circle class="u" cx="431.26" cy="386.4" r="57.05"></circle><path class="q" d="M474.01,348.61c-10.45-11.82-25.73-19.27-42.75-19.27v57.54l42.75-38.28Z"></path><path class="s" d="M480.44,415.34c4.98-8.47,8.04-18.23,8.04-28.77,0-14.69-5.55-28.09-14.68-38.2l-42.55,38.52,49.18,28.45Z"></path></g><g><rect class="s" x="520.3" y="392.8" width="17.6" height="32.77"></rect><rect class="s" x="546.39" y="351.6" width="17.6" height="73.97"></rect><rect class="s" x="572.48" y="369.23" width="17.6" height="56.33"></rect><rect class="s" x="598.57" y="387.94" width="17.6" height="37.62"></rect><line class="j" x1="507.6" y1="425.56" x2="624.75" y2="425.56"></line></g></g><g><g><path class="l" d="M427.73,543.66c-1.52-.17-22.32,11.03-24.51,13.22-2.19,2.19-9.52,18.11-9.52,18.11l-31.41,34.86s-22.16-53.73-24.62-57.71c-1.55-2.5-6.45-6.54-6.45-6.54-4.12-2.69-10.91-5.49-18.17-8.05,.23-.01,.45,0,.67-.03l-1.2-16.23s7.1,3.61,13.31,.32c6.21-3.3,6.97-9.95,5.51-15.53l3.12-1c1.11-.36,1.72-1.55,1.37-2.66l-8.17-25.5-39.68,23.64-5.81,27.8c-.73-.19-1.15-.29-1.15-.29-7.33,.84-16.67,9.57-16.67,9.57-11.12,13.11-9.45,18.66-10.09,29.14-.65,10.48,1.81,30.28,1.68,43.1-.13,12.81-5.69,45.3-5.69,45.3,0,0,17.65,25.34,39.62,39.71,20.92,13.68,47.54,23.97,47.54,23.97,0,0-11.84-73.65-12.94-84.31s-1.1-20.67-1.1-20.67c0,0,8.8,14.19,15.73,25.84,6.93,11.66,12.98,14.52,23.53,14.52s16.93-11.22,16.93-11.22l27.87-67.52s6.23-3.03,8-5.98c1.77-2.95-2.27-10.27-2.27-10.27,0,0,12.88-8.59,15.58-11.2,2.69-2.61,.51-4.21-1.01-4.38Z"></path><ellipse class="u" cx="272.87" cy="494.01" rx="22.71" ry="26.22"></ellipse><path class="u" d="M327.68,476.93s-12.38,21.7-34.31,24.54c-21.94,2.84-4.16-20.02-4.16-20.02l.93-4.48s-.07-12.36,9.37-17.12,18.87-2.01,23.39,4.49c4.07,5.86,4.41,9.6,4.78,12.59Z"></path><line class="h" x1="307.32" y1="588.12" x2="319.9" y2="609.96"></line><line class="h" x1="352.93" y1="595.85" x2="324.62" y2="612.35"></line><path class="h" d="M281.66,531.28s6.17,11.82,31.44,10.41"></path><path class="h" d="M286.1,529.73s4.87,8.9,24.81,7.83"></path><path class="h" d="M319.19,507.84s1.52,5.41,7.78,4.84"></path><path class="y" d="M362.3,609.85s-22.16-53.73-24.62-57.71c-1.55-2.5-6.45-6.54-6.45-6.54-3.17-2.36-11.33-5.5-11.33-5.5,22.61,26.58,42.4,69.75,42.4,69.75Z"></path></g><g><path class="l" d="M514.69,744.97s13.91-46.16,0-69.7c0,0-17.27,17.88-30.57,15.59-13.3-2.29-17.58-11.62-17.58-11.62,0,0-4.59-9.93-5.96-46.46l-1.99-37.9-6.38-11.27s-2.67-4.17,.92-7.17c3.58-3,8.83-6.58,8.83-6.58l-1.17-17.58s-.5-2.92,1.58-2.92,2.25,.75,4,12.25c1.75,11.5,4.33,23.33,4.33,23.33l.17,8.5,13.67,64.59,24.92-34.5s5.83-7.58,14.5-10.42c8.67-2.83,18.92-3.25,18.92-3.25l3.33-16.83s-8.58,1-12.58-.17-7.03-4.44-6.75-8.67c.13-1.91,.33-5.67,.33-5.67l-2.04-1.76c-.85-.73-.99-1.98-.34-2.89,1.13-1.58,2.74-4.17,3.47-6.85,1.17-4.33,6-22.75,6-22.75l35.09,37.25,26.03,113.07-.6,7.42s3.62,28.15,4.18,31.54c0,0-55.57,13.2-84.31,11.41Z"></path><path class="h" d="M527.27,629.47c3.92,11.29,4.31,27.74-11.01,43.91"></path><line class="h" x1="544.46" y1="609.55" x2="551.29" y2="609.55"></line><path class="h" d="M536.58,578.8s-.45,4.51-6.42,3.21"></path><path class="u" d="M564.83,533.14s13.45,3.67,17.12,15.74-.31,15.28,3.97,25.07,9.02,13.14,22.62,15.9c13.6,2.75,18.04,12.84,18.04,12.84,0,0,3.21,4.13,3.82,14.52,.61,10.39-.31,25.83,7.49,32.25,6.43,5.3,21.3,13.72,29.99,25.35,2.73,3.65,.89,8.91-3.47,10.22l-87.14,26.14c-2.66,.8-5.51-.15-7.19-2.36-4.33-5.69-11.89-17.53-12.44-31.54-.75-19.43,5.62-18.38,7.56-34.3,.06-.5,.06-1,.01-1.5-.22-2.06-1.04-7.6-3.75-10.06-3.36-3.06-12.99-8.1-13.14-21.09-.15-12.99,7.64-19.41,5.04-29.04-2.6-9.63-17.42-12.23-19.87-24.45-2.42-12.11,.85-27.07,24.54-25.42,.45,.03,.9,.11,1.33,.23l5.46,1.5Z"></path><path class="x" d="M484.49,658.02l24.92-34.5s5.83-7.58,14.5-10.42c0,0,8.92-2.94,18.92-3.25,0,0-27.21,8.33-58.34,48.17Z"></path></g><g><path class="l" d="M762.4,502.68l-2.37-16.87s0-.06,0-.1l-2.39-36.56c-.03-.47-.31-.89-.73-1.1l-24.77-12.23c-.23-.11-.48-.16-.73-.13l-7.85,.89c-.63,.07-1.11,.57-1.16,1.21-.25,3.19-1.58,12.77-8.73,19.22-.53,.48-.62,1.27-.17,1.83l3.65,4.53c.26,.32,.36,.74,.25,1.15-.58,2.25-2.15,10.11,2.72,14.35,4.33,3.77,10.85,4.15,13.78,4.1,.8-.01,1.42,.68,1.33,1.47l-2.8,23.72c-.17-.02-.28-.03-.28-.03,0,0-10.14,2.03-20.78,5.24-10.64,3.21-26.01,20.95-26.01,20.95l-25.05,29.89-40.4-46.68c-.9-12.57-5.61-15.71-5.61-15.71l-10.21-8.64s-2.24-3.82-4.49-2.02c-2.24,1.8-.45,4.49-.45,4.49l5.16,9.09-11.11-7.41-7.63-14.25s-1.23-3.48-4.04-2.36c-2.81,1.12-1.68,3.93-1.68,3.93l8.3,23.68,22.79,15.71s14.41,43.22,29.91,65.49c15.5,22.27,33.84,8.51,33.84,8.51l32.09-26.63c.22,4.8-1.96,20.08-1.96,20.08l-17.13,94.27c16.76-9.18,40.48-41.06,53.92-60.34,13.44-19.28,24.92-57.44,29.21-73.6s6.03-44.29,6.03-44.29c-4.58-3.75-11.43-4.63-14.41-4.84Z"></path><path class="u" d="M716.14,412.84c1-2.77,3.89-4.34,6.79-3.76,1.86,.37,4.18,1.16,6.59,2.78,5.59,3.76,8.15,7.67,11.27,7.91,3.12,.24,7.67-1.44,9.19-1.28s4.71,.64,6.79,4.79,1.73,10.35,6.66,12.37c4.93,2.02,10.04-.54,11.08,2.26s-2.72,14.94-3.68,17.74-11.35,22.08-10.55,31.89c0,0-14.3-9.52-14.7-19.75,0,0,6.79,.56,6.47-5.43-.32-5.99-6.39-4.95-6.39-4.95l1.09-4.08s-23.46-8.47-29.22-24.05c-2.99-8.1-2.53-13.3-1.39-16.44Z"></path><path class="h" d="M730.77,467.88s-2.1,6.4-9.71,3.86"></path><path class="h" d="M672.53,552.91s5.68,12.68,22.04,25.37"></path><path class="h" d="M735.43,509.61s14.46,.93,25.44-5.03"></path></g></g></g><path class="w" d="M732.13,508.13l-14.73,3.51-7.67,2.31s-3.87,1.74-8.13,4.93c-5.63,4.21-14.13,12.66-17.59,17.01,0,0,23.35-19.25,48.11-27.76Z"></path></g><rect class="g" x="326.29" y="148.57" width="371.43" height="470.86"></rect></svg> 