<?xml version="1.0" encoding="UTF-8"?> <svg xmlns="http://www.w3.org/2000/svg" xmlns:xlink="http://www.w3.org/1999/xlink" id="Layer_4" data-name="Layer 4" viewBox="0 0 1063 517"><defs><style>.cls-1,.cls-13,.cls-19,.cls-7,.cls-8{fill:none;}.cls-2{fill:#fff;}.cls-3{clip-path:url(#clip-path);}.cls-4{fill:#bc7bf3;}.cls-5{fill:#af60f1;}.cls-6{fill:#02024b;}.cls-7{stroke:#02024b;}.cls-13,.cls-19,.cls-7,.cls-8{stroke-linecap:round;stroke-linejoin:round;stroke-width:1.5px;}.cls-8{stroke:#bc7bf3;}.cls-9{fill:url(#linear-gradient);}.cls-10{fill:url(#linear-gradient-2);}.cls-11{fill:url(#linear-gradient-3);}.cls-12{fill:#21e4ab;}.cls-13{stroke:#00b5e6;}.cls-14{fill:url(#linear-gradient-4);}.cls-15,.cls-16,.cls-17,.cls-18{opacity:0.5;}.cls-15{fill:url(#linear-gradient-5);}.cls-16{fill:url(#linear-gradient-6);}.cls-17{fill:url(#linear-gradient-7);}.cls-18{fill:url(#linear-gradient-8);}.cls-19{stroke:#21e4ab;}.cls-20{fill:#1fca9f;}.cls-21{fill:url(#linear-gradient-9);}</style><clipPath id="clip-path"><path class="cls-1" d="M881.37,181.24C829,164,781.48,134.3,742,95.79a225,225,0,0,0-157.51-64c-39.06,0-153.86-29.19-185.9-11.73C336.11,54.05,348,74.38,277.2,67.91c-4.48-.41-13.87,34.06-18.45,34-97-1.4-178.11,78.35-178.29,175.36A175.85,175.85,0,0,0,294.38,449.13c69.14-15.33,141.14-7.75,207,18.33a227,227,0,0,0,131,10.7c51.53-11.14,105-10.15,156.32,1.78,92,21.36,193.88-44.91,193.88-153.56C982.54,237.06,931.11,197.66,881.37,181.24Z"></path></clipPath><linearGradient id="linear-gradient" x1="561.62" y1="297.32" x2="630" y2="297.32" gradientUnits="userSpaceOnUse"><stop offset="0" stop-color="#ba59ff"></stop><stop offset="0.48" stop-color="#00b5e6"></stop><stop offset="1" stop-color="#00e3a3"></stop></linearGradient><linearGradient id="linear-gradient-2" x1="491.87" y1="310.42" x2="620.32" y2="310.42" gradientUnits="userSpaceOnUse"><stop offset="0" stop-color="#eedbff"></stop><stop offset="1" stop-color="#a4e5f3"></stop></linearGradient><linearGradient id="linear-gradient-3" x1="524.76" y1="232.11" x2="573.03" y2="232.11" xlink:href="#linear-gradient"></linearGradient><linearGradient id="linear-gradient-4" x1="319.33" y1="142.46" x2="425.09" y2="142.46" xlink:href="#linear-gradient-2"></linearGradient><linearGradient id="linear-gradient-5" x1="446.61" y1="235.64" x2="469.29" y2="186.8" xlink:href="#linear-gradient"></linearGradient><linearGradient id="linear-gradient-6" x1="233.91" y1="365.24" x2="349.9" y2="115.42" xlink:href="#linear-gradient"></linearGradient><linearGradient id="linear-gradient-7" x1="262.32" y1="498.1" x2="377.32" y2="235.39" xlink:href="#linear-gradient"></linearGradient><linearGradient id="linear-gradient-8" x1="345.02" y1="268.33" x2="404.18" y2="268.33" xlink:href="#linear-gradient"></linearGradient><linearGradient id="linear-gradient-9" x1="358.56" y1="86.87" x2="415.32" y2="86.87" xlink:href="#linear-gradient"></linearGradient></defs><path class="cls-2" d="M881.37,181.24C829,164,781.48,134.3,742,95.79A225.84,225.84,0,0,0,476.6,59.14c-62.44,34-133.43,50-204.24,43.48q-6.74-.62-13.61-.72c-97-1.4-178.11,78.35-178.29,175.36A175.85,175.85,0,0,0,294.38,449.13c69.14-15.33,141.14-7.75,207,18.33a227,227,0,0,0,131,10.7c51.53-11.14,105-10.15,156.32,1.78,92,21.36,193.88-44.91,193.88-153.56C982.54,237.06,931.11,197.66,881.37,181.24Z"></path><g class="cls-3"><path class="cls-4" d="M753.27,429.93l11,66.22-164.61,4.46v-59s-49.1-5.58-63.45-53.44a120.37,120.37,0,0,0-10.45-24.67c-1-1.81-1.67-2.79-1.67-2.79s-23.78-11.22-23.5-14.56,4.72-8.08,4.72-8.08,6.41-10.85,5.3-10.85-9.61-5.14-5.43-9.32S537,320.56,537,320.56s1.71,24.08,12.8,32.83a28.33,28.33,0,0,0,11.31,5.24s5.39-82.87,58.55-90.12c13.42-1.82,26.71-3.45,39.65-4.6,51.71-4.63,98-1.92,126.21,24.09C813.47,313.76,860.14,439.11,753.27,429.93Z"></path><path class="cls-5" d="M753.27,429.93S672.18,406.51,637,373.73c18.09,10.83,124.46,63.36,153.79,32.91s17-85.23-5.18-118.64C813.47,313.76,860.14,439.11,753.27,429.93Z"></path><path class="cls-5" d="M599.66,449.64v-8s-49.1-5.58-63.45-53.44a120.37,120.37,0,0,0-10.45-24.67h0c13.39,7.4,30.7,57.19,73.38,60.27l1,26Z"></path><polygon class="cls-4" points="714.51 226.84 706.49 239.34 709.05 263.36 658.42 266.01 667.7 242.84 639.9 242.84 643.45 221.45 650.19 180.83 652.97 164.1 698.46 164.1 718.11 203.88 714.51 226.84"></polygon><path class="cls-6" d="M669.6,147.8c-60.31-.74-33.6,34.07-20.4,39s37.49-13,45.79,4.77c2.09,4.47-4.3,15.22-3.31,20.68s-8.27,16.71-14.56,16-9.92-8.1-16.54-7.93-17,.2-17,.2S632,234.9,642.38,250.29s48.64,1.49,57.9-11.58-2.49-23.28,2.73-32,13.16-4.41,12.83,3.53-9.35,29.09-9.35,29.09,19.11-21.8,20.26-31.4S729.9,148.55,669.6,147.8Z"></path><path class="cls-7" d="M704.74,218.86H708a8.6,8.6,0,0,0,8.59-8.59v-7.85"></path><path class="cls-8" d="M647.92,229.73c.5.09,8.52,1.82,14.23,0,0,0-2.65,4.47-11.41,5.71"></path><path class="cls-7" d="M655.69,204.94c-1.59,2.51-4.13,6.35-5.59,8.15a2.66,2.66,0,0,0,1,4.13,13.77,13.77,0,0,0,9.27.62"></path><path class="cls-7" d="M658.9,267.59s-10.71,14.84,0,18.18,37.18-9.47,45.84-19.76"></path><path class="cls-7" d="M704.74,329.93c6.79,14.84,46.87,61.59,46.87,61.59"></path><path class="cls-7" d="M747.53,426c-64.2-14.1-110.58-52.3-110.58-52.3s-15.21,7.06-24.49,0-15-16.16-11-25.62L619.33,350s-2.33-12.33.85-21.43a5.58,5.58,0,0,1,8.58-2.68h0a5.53,5.53,0,0,1,2.16,5.57c-.62,3.06-1,7.41.87,9.45,3.12,3.34,12,4.64,12.21,10.58l92.75,22.28"></path><line class="cls-7" x1="720.86" y1="353.74" x2="807.68" y2="323.18"></line><line class="cls-7" x1="725.55" y1="359.78" x2="810.41" y2="329.93"></line><path class="cls-7" d="M565,360.72s27,12.62,35.21,28.2"></path><path class="cls-7" d="M598.82,436.05s.68-53.25,6.74-68.79"></path><path class="cls-6" d="M562.26,279l-9.79,5.25-3.08,3.2-3.94,2.3c-14.76-7.44-13.06-22.2-11.44-29.16,1.22-5.22-1.48-14.71,1.43-20.26a3,3,0,0,1,5.6.86c.77,3.62,2.72,8.34,7.69,10.7C561.47,257.93,565.52,270.29,562.26,279Z"></path><path class="cls-9" d="M564,252.77c9.39-7,39.36.19,52.39,18.44s21.12,35.94,3.55,73.28l-58.28-82.73Z"></path><path class="cls-10" d="M619.9,344.49c-.28,3.44-.58,5.48-.58,5.48L491.87,332.15l2.31-10.2,28.39,2.81s18.37-62.37,62.62-52.9c26.36,5.64,33.43,32.28,34.83,52.9A137.24,137.24,0,0,1,619.9,344.49Z"></path><path class="cls-7" d="M529.25,355.34c4.55-.92.67-6.94-12.15-11.5"></path><path class="cls-7" d="M534,351.31c5.29.83,5.85-5.15-11.27-12.52"></path><path class="cls-7" d="M528.14,361.44c.69.17,8.9,1.14,11.13-2.9"></path><path class="cls-11" d="M526.74,183.89h0a3,3,0,0,1,3.69,1.48L573,271s-5.29,13.26-21.33,8.45l-26.82-91.91A3,3,0,0,1,526.74,183.89Z"></path><polyline class="cls-7" points="619.63 342.08 611.66 341.05 609.15 335.95 612.79 331.73 619.48 332.82"></polyline><circle class="cls-6" cx="614.05" cy="336.74" r="0.72"></circle><circle class="cls-6" cx="617.6" cy="337.08" r="0.72"></circle><line class="cls-7" x1="494.18" y1="321.95" x2="541.22" y2="326.59"></line><path class="cls-7" d="M551.7,279.46s13.39-4.88,15-21.18"></path><path class="cls-7" d="M547.32,263a21.12,21.12,0,0,0,12.62-17.81"></path><path class="cls-7" d="M542.94,246.55a17.49,17.49,0,0,0,10.45-14.76"></path><path class="cls-7" d="M537.92,230.49a14.5,14.5,0,0,0,8.66-12.22"></path><path class="cls-7" d="M533.25,214.37a11,11,0,0,0,6.59-9.3"></path><path class="cls-7" d="M528.87,198.28a7.31,7.31,0,0,0,4.38-6.17"></path><path class="cls-12" d="M405.09,207c4,6.79,31.28,25.31,23,60l-19.29,24s-23.38-8.17-23.56-9.47-1.11-24.67,0-25.79,7.23-50.27,7.79-50.46S405.09,207,405.09,207Z"></path><path class="cls-12" d="M228.49,335.47c-19.74,20.8-29.76,33.42-19.37,47.89s30.8-7.05,46-4.08,4.46,17.07,28.58,19.29,39.7-24.12,44.89-23.75-3.71-44.15-3.71-44.15-65.67-15.59-67.16-14.47S228.49,335.47,228.49,335.47Z"></path><path class="cls-4" d="M309.34,115.11c-11.39,20.46-15.19,70.09-38,71.39,0,0,17.7,17.05,53.54,17.05s40-18.46,40-18.46L349.72,98.21Z"></path><path class="cls-7" d="M286.09,176.53c7.3-.13,18.92-14.25,18.92-14.25"></path><path class="cls-6" d="M339,112.43l-7.77,7.93-2,4-3.07,3.37c-16.31-2.68-19.1-17.28-19.64-24.4-.4-5.34-5.81-13.6-4.69-19.76a3,3,0,0,1,5.6-.85c1.81,3.22,5.08,7.14,10.53,7.9C331.9,92.56,339.46,103.14,339,112.43Z"></path><path class="cls-13" d="M305.25,89.36c2.79,4,5.34,6.71,5.73,11.24.54,6.41,6.73,16.4,12.38,17.81"></path><path class="cls-6" d="M365,102.46,375.58,106l3.58,2.63,4.27,1.6c13.29-9.83,9.1-24.09,6.33-30.67-2.08-4.94-1-14.76-4.84-19.73a3,3,0,0,0-5.38,1.8c-.13,3.69-1.26,8.67-5.76,11.84C362.24,81.56,360.35,94.44,365,102.46Z"></path><path class="cls-13" d="M384.49,66.56c-.66,4.8-1.68,8.41,0,12.61,2.44,6,1.5,17.66-2.88,21.5"></path><path class="cls-14" d="M324.22,185.31l100.87-29.63-3.54-22.41S390,88.18,348.92,102.38C303,118.24,324.22,185.31,324.22,185.31Z"></path><path class="cls-6" d="M438.25,338.78c6.68,27.42-17.81,50.14-17.81,50.14l6.12,95.55H276.06l31.39-75.14-10-57.95a343.61,343.61,0,0,0-36.18-5.22c-17.53-1.39-52.59-13.92-54-40.91s83.67-109.65,87.94-116.88c3.53-6,9.6-33.29,11.58-42.56a7.64,7.64,0,0,1,3.35-4.8l9.19-5.84L333.74,126a2.56,2.56,0,0,1,1.34-.39,2.43,2.43,0,0,1,2.19,1.34,2.47,2.47,0,0,1-.31,2.78l-8.54,9.84,9.63-1.3a2.19,2.19,0,0,1,.36,0,2.61,2.61,0,0,1,.92,5l-8.69,3.34-10.72,8.83a1.66,1.66,0,0,0-.62,1.31,1.82,1.82,0,0,0,0,.32,1.7,1.7,0,0,0,2.25,1.29l16.73-6.09a2.25,2.25,0,0,1,.76-.13,2.24,2.24,0,0,1,1.39,4l-16.23,12.76a3.65,3.65,0,0,0-1.4,2.8c-.08,3.48-.42,11.37-1.84,15.35-1.85,5.2-47.3,94.44-47.3,94.44h76.8s8.54-10-2.78-34.15,8.17-65.85,8.17-65.85H383c27.27,25.78,29.31,60.66,26.72,73.09s-20.22,16.28-20.22,16.28l4.82,9.63h13.54l63.27-42.23c-22.12-20.34-41-60.24-52.3-67.88a8.72,8.72,0,0,0-1.31-.77c-11.14-5.19-17.2-6.67-17.2-6.67l24.81-7.28-4.83-15.55-4.93.83s-13.26-12.33-16.78-15.48,0-6.5,0-6.5-5.39-2-3.16-5.38,20.41,8.16,27.84,16.33,5.56,23.38,5.56,23.38,80.15,45,85.16,77.18C520.21,270.7,438.25,338.78,438.25,338.78Z"></path><path class="cls-15" d="M499.45,248.11s-5.68,3.56-15.33-.36-13-9.47-13-9.47c-22.12-20.34-41-60.24-52.3-67.88l-.27-.53C435,177,465,219.54,499.45,248.11Z"></path><path class="cls-16" d="M319.33,135.17c-6.2,6.4-8.4,8.16-9.5,14.44s-4.4,32.28-8.16,39.11-79.41,92-78,116c2,33.69,73.74,46.64,73.74,46.64a343.61,343.61,0,0,0-36.18-5.22c-17.53-1.39-52.59-13.92-54-40.91s83.67-109.65,87.94-116.88c3.53-6,9.6-33.29,11.58-42.56a7.64,7.64,0,0,1,3.35-4.8Z"></path><path class="cls-17" d="M297.43,351.38l6.46,7.28a67,67,0,0,1,16.8,40.59l.05.93a67.07,67.07,0,0,1-3.42,25.38l-19.89,58.81-21.37.1,31.39-75.14Z"></path><path class="cls-18" d="M355.26,288.56l8.4-20.14s23.27,10,40.52-4.84c0,0-37,11.41-56-15.48,0,0,13,18.8,2.33,33.41H345Z"></path><line class="cls-19" x1="328.42" y1="139.57" x2="314.23" y2="146.35"></line><path class="cls-12" d="M373.13,214.15c-15.58,1.86-34.08,19.11-25.41,33.21,13.91,22.64,2.78,34.14,2.78,34.14H273.69l35.68-70.56c2.47-1.13,7.7-7,14.41-13.87h0c5.85-6,12.82-12.75,20.07-17.79l30.67-9.41c8.92-.08,17.7,1.89,24.49,6.56h0a27.84,27.84,0,0,1,10.65,14C417.1,211.56,388.72,212.3,373.13,214.15Z"></path><path class="cls-20" d="M399,176.44l-75.24,20.63c5.85-6,12.82-12.75,20.07-17.79l30.67-9.41c8.92-.08,17.7,1.89,24.49,6.56Z"></path><line class="cls-19" x1="255.51" y1="281.5" x2="350.5" y2="281.5"></line><path class="cls-19" d="M277.4,281.5s12.78,42.33-6.78,65.6"></path><polyline class="cls-19" points="399.29 280.51 392.61 314.3 345.02 281.5"></polyline><path class="cls-19" d="M392.61,314.3c6.12,16.28,15,41.32,5.29,62.75s-14.64,89.33-13.25,107.42"></path><path class="cls-19" d="M423.5,306.09c9.46,13.35,14.75,32.7,14.75,32.7"></path><path class="cls-19" d="M443.14,256.93c11,8,26.84,31.35,28.44,50.25"></path><path class="cls-19" d="M471.09,238.28s5.1,8,20.78,12.15"></path><circle class="cls-19" cx="389.09" cy="338.43" r="3.12"></circle><circle class="cls-19" cx="389.09" cy="372.92" r="3.12"></circle><circle class="cls-19" cx="379.59" cy="407.42" r="3.12"></circle><circle class="cls-19" cx="376.47" cy="441.91" r="3.12"></circle><circle class="cls-19" cx="370.8" cy="233.11" r="11.15"></circle><line class="cls-19" x1="363.79" y1="241.78" x2="373.57" y2="222.3"></line><line class="cls-19" x1="367.74" y1="243.76" x2="377.52" y2="224.29"></line><circle class="cls-19" cx="395.24" cy="225.18" r="11.15"></circle><line class="cls-19" x1="388.22" y1="233.85" x2="398" y2="214.37"></line><line class="cls-19" x1="392.18" y1="235.83" x2="401.95" y2="216.36"></line><line class="cls-19" x1="360.38" y1="237.07" x2="345.89" y2="246.37"></line><path class="cls-19" d="M389.27,234.84s3.49,3.52,8.16,3.52c4,0,2,10-5,6"></path><path class="cls-19" d="M384.09,251.82s6.44,3.48,13,.83"></path><path class="cls-19" d="M361.58,267.4a41.05,41.05,0,0,0,27.88,3.48"></path><line class="cls-7" x1="420.25" y1="140.13" x2="321.55" y2="167.77"></line><line class="cls-7" x1="326.93" y1="167.03" x2="331.13" y2="183.19"></line><line class="cls-7" x1="336.84" y1="164.23" x2="341.11" y2="180.33"></line><line class="cls-7" x1="346.74" y1="161.43" x2="351.09" y2="177.46"></line><line class="cls-7" x1="356.65" y1="158.62" x2="361.07" y2="174.6"></line><line class="cls-7" x1="366.55" y1="155.82" x2="371.06" y2="171.74"></line><line class="cls-7" x1="376.46" y1="153.01" x2="381.04" y2="168.87"></line><line class="cls-7" x1="386.36" y1="150.21" x2="391.02" y2="166.01"></line><line class="cls-7" x1="396.27" y1="147.41" x2="401" y2="163.14"></line><line class="cls-7" x1="406.17" y1="144.6" x2="410.98" y2="160.28"></line><line class="cls-7" x1="416.08" y1="141.8" x2="420.96" y2="157.42"></line><path class="cls-21" d="M413.39,37.85h0a3.15,3.15,0,0,1,1.74,4L382,131.41s-7.44,7.84-17.36,3.34c-10.38-4.7-4.22-15.21-4.22-15.21l49.1-80.43A3.14,3.14,0,0,1,413.39,37.85Z"></path><path class="cls-7" d="M359.22,122.26c.92,5.44,20.2,8,25.87.7"></path><path class="cls-7" d="M367.15,109.57c.8,4.71,17.51,6.94,22.42.59"></path><path class="cls-7" d="M375,96.78c.69,4.08,15.16,6,19.41.52"></path><path class="cls-7" d="M382.67,84c.59,3.48,12.93,5.13,16.56.45"></path><path class="cls-7" d="M390.13,71.07c.51,3,11,4.36,14.09.37"></path><path class="cls-7" d="M398.17,58.32c.39,2.29,8.52,3.37,10.91.29"></path><path class="cls-7" d="M406.1,45.56c.28,1.63,6.06,2.4,7.76.21"></path></g><line class="cls-19" x1="398.55" y1="118.98" x2="415.32" y2="127.71"></line><path class="cls-6" d="M575.19,279.48l9.53,5.7,2.93,3.35,3.83,2.48c15.09-6.73,14.09-21.56,12.8-28.58-1-5.27,2.17-14.63-.47-20.31a3,3,0,0,0-5.64.6c-.93,3.57-3.1,8.19-8.18,10.31C577,258.47,572.35,270.63,575.19,279.48Z"></path><path class="cls-7" d="M571.83,278.05s16.1,5.7,23.1,18.4"></path><path class="cls-13" d="M600.5,242.21s-2.23,14.12-5.57,20-8.95,11.89-8.12,19.12"></path><path class="cls-4" d="M346.22,133.19c3.5-11.29-10.68-15.54-8.47-25.66,0,0-10.3-19,6.38-24.37s20.54,15.93,20.54,15.93S367.93,127.63,346.22,133.19Z"></path><path class="cls-7" d="M569.22,245.9S574,258.12,573,271"></path><path class="cls-7" d="M582.8,261.76s.05-6.63-.28-9.78-.92-6.08-.92-6.08"></path><path class="cls-7" d="M602.65,280.54s8.71-11.18,8.49-20.52"></path><path class="cls-7" d="M605.53,283.4s11.91-5.14,15.38-11.43"></path><path class="cls-7" d="M609.77,289.35s12.28-.3,17.92-6"></path><path class="cls-7" d="M614.21,297.84s9.95.71,15.76-3.07"></path><path class="cls-7" d="M617.75,308.71a35.35,35.35,0,0,0,12.68-1.39"></path><path class="cls-7" d="M619.4,319.47a43.92,43.92,0,0,0,10-.38"></path><path class="cls-7" d="M619.42,328.79a48.77,48.77,0,0,0,7.14.4"></path><path class="cls-7" d="M337.74,87c6.39-3.8,19.28-.69,20.8,9.51"></path><path class="cls-7" d="M335.35,90.93c5.82,1.63,18.9,9.67,12.79,23.35"></path><path class="cls-7" d="M302.56,132.26s6.84-6.56,20.62-4.55"></path><path class="cls-7" d="M295.84,154.34s8.4-17.9,26-19.42"></path></svg> 